/* XPM */
static char * C:\Users\hongl\shares\neng\bitcoin16_xpm[] = {
"16 16 190 2",
"  	c None",
". 	c #AA957D",
"+ 	c #A99884",
"@ 	c #A79681",
"# 	c #A79077",
"$ 	c #B3A99E",
"% 	c #CACAC7",
"& 	c #D4D6D5",
"* 	c #D1D3D2",
"= 	c #BEC0BF",
"- 	c #ABACAB",
"; 	c #B0AEAB",
"> 	c #AFA499",
", 	c #A58A74",
"' 	c #BDB9B5",
") 	c #EDEEEE",
"! 	c #EEEFF0",
"~ 	c #D5D8D8",
"{ 	c #BDBFBF",
"] 	c #AAACAD",
"^ 	c #A9ADAE",
"/ 	c #ABADAD",
"( 	c #C1C3C2",
"_ 	c #C2BEBB",
": 	c #AF9884",
"< 	c #B0A99E",
"[ 	c #D3D1C3",
"} 	c #F2EDE1",
"| 	c #F0EBDF",
"1 	c #D2CDC0",
"2 	c #C0BDAE",
"3 	c #C0C2BB",
"4 	c #C2C7C5",
"5 	c #C1C2B5",
"6 	c #D6D3C5",
"7 	c #D7CFC4",
"8 	c #B7A998",
"9 	c #CACBC6",
"0 	c #C4B59D",
"a 	c #AD8560",
"b 	c #B48158",
"c 	c #B37E54",
"d 	c #B68054",
"e 	c #C19674",
"f 	c #CFCBC0",
"g 	c #C4B7A0",
"h 	c #A98561",
"i 	c #BDA88B",
"j 	c #D0CCC1",
"k 	c #D6C9BB",
"l 	c #CBCCC1",
"m 	c #DFE2E1",
"n 	c #E2E1DC",
"o 	c #A99683",
"p 	c #61231F",
"q 	c #742D20",
"r 	c #AA6031",
"s 	c #CB7D3F",
"t 	c #C6B2A0",
"u 	c #DADAD5",
"v 	c #C4B49B",
"w 	c #DCD8CD",
"x 	c #DCDFDB",
"y 	c #E2E1D7",
"z 	c #D4CDA8",
"A 	c #DDDFDA",
"B 	c #EFF1ED",
"C 	c #F0EFEA",
"D 	c #D7CDB7",
"E 	c #867063",
"F 	c #501122",
"G 	c #A3693B",
"H 	c #D89550",
"I 	c #BD8B64",
"J 	c #DFD9CE",
"K 	c #E1D9C4",
"L 	c #EDEAE2",
"M 	c #EAECE8",
"N 	c #E5E6E1",
"O 	c #E3DDBC",
"P 	c #C2B9A1",
"Q 	c #E2E5E1",
"R 	c #EAECE9",
"S 	c #E9EAE7",
"T 	c #D4CEC0",
"U 	c #C7BEB2",
"V 	c #5B373E",
"W 	c #5D2B2D",
"X 	c #C79459",
"Y 	c #CB985E",
"Z 	c #C1A995",
"` 	c #D7CEBF",
" .	c #E7E5E0",
"..	c #E2E4E1",
"+.	c #E0E1DE",
"@.	c #CEC5AE",
"#.	c #ADA596",
"$.	c #E5E6E3",
"%.	c #ECEEEB",
"&.	c #ECEDE9",
"*.	c #D7D1C5",
"=.	c #E6E2DB",
"-.	c #A1958D",
";.	c #4D152B",
">.	c #885E42",
",.	c #D4A364",
"'.	c #BE8F63",
").	c #CABAA5",
"!.	c #EAE8E2",
"~.	c #EAEBE8",
"{.	c #E3E3E0",
"].	c #B2AA9B",
"^.	c #9E9185",
"/.	c #DDDFDC",
"(.	c #E9EBE9",
"_.	c #E8E6E1",
":.	c #DBD6CE",
"<.	c #6B4F4C",
"[.	c #531B26",
"}.	c #AF7A49",
"|.	c #B67C4C",
"1.	c #D1B48A",
"2.	c #EBE9E3",
"3.	c #EAEBE9",
"4.	c #DADCD9",
"5.	c #A29789",
"6.	c #BCBCBB",
"7.	c #D8DADA",
"8.	c #E0E0DE",
"9.	c #D3BBA0",
"0.	c #E3DED8",
"a.	c #DFE0DE",
"b.	c #ACA095",
"c.	c #521B23",
"d.	c #5C2020",
"e.	c #904B2F",
"f.	c #D4AF7E",
"g.	c #E2E0DC",
"h.	c #E8EAEA",
"i.	c #C8C9C8",
"j.	c #9E9691",
"k.	c #C5C4C0",
"l.	c #D4C9B6",
"m.	c #AB7656",
"n.	c #CCB9A4",
"o.	c #D6D4CC",
"p.	c #BBB6B0",
"q.	c #775C4E",
"r.	c #53171B",
"s.	c #692D20",
"t.	c #CBA471",
"u.	c #DBD9D5",
"v.	c #EAECEC",
"w.	c #B0AAA6",
"x.	c #AEA79E",
"y.	c #B4A89B",
"z.	c #C2B7B0",
"A.	c #C5B9B0",
"B.	c #BEB8AD",
"C.	c #B8BCBC",
"D.	c #B5B3AC",
"E.	c #A79F99",
"F.	c #A59E98",
"G.	c #B3AB9E",
"H.	c #CBCCCA",
"I.	c #C8C7C6",
"J.	c #A08F7E",
"K.	c #C2C2C0",
"L.	c #D2D5D4",
"M.	c #D1D4D4",
"N.	c #CED4D5",
"O.	c #D0D6D7",
"P.	c #D3D8D8",
"Q.	c #D1D7D7",
"R.	c #CCD2D3",
"S.	c #CBD1D2",
"T.	c #BBBCBA",
"U.	c #A29181",
"V.	c #B6B0AA",
"W.	c #C4C6C3",
"X.	c #D3D7D4",
"Y.	c #D9DCDB",
"Z.	c #DBDDDC",
"`.	c #CFD3D2",
" +	c #BDC0BE",
".+	c #AAA69F",
"++	c #988A76",
"@+	c #968B7B",
"#+	c #978B7B",
"$+	c #978974",
"            . + @ #             ",
"        $ % & * = - ; >         ",
"    , ' ) ! ~ { ] ^ / ( _ :     ",
"    < [ } | 1 2 3 4 5 2 6 7     ",
"  8 9 0 a b c d e f g h i j k   ",
"  l m n o p q r s t u v w x y   ",
"z A B C D E F G H I J K L M N O ",
"P Q R S T U V W X Y Z `  ...+.@.",
"#.$.%.&.*.=.-.;.>.,.'.).!.~.{.].",
"^./.(.&.` _.:.<.[.}.|.1.2.3.4.5.",
"  6.7.8.9.0.a.b.c.d.e.f.g.h.i.  ",
"  j.k.l.m.n.o.p.q.r.s.t.u.v.w.  ",
"    x.y.z.A.B.C.D.E.F.G.H.I.    ",
"    J.K.L.M.N.O.P.Q.R.S.T.U.    ",
"        V.W.X.Y.Z.`. +.+        ",
"            ++@+#+$+            "};
