/* XPM */
static char * C:\Users\hongl\shares\neng\bitcoin32_xpm[] = {
"32 32 696 2",
"  	c None",
". 	c #BFA375",
"+ 	c #BA9E73",
"@ 	c #AB8F6B",
"# 	c #A48D72",
"$ 	c #9A8779",
"% 	c #958881",
"& 	c #928882",
"* 	c #918781",
"= 	c #92857D",
"- 	c #998575",
"; 	c #A38C71",
"> 	c #B89D73",
", 	c #B0946E",
"' 	c #9E876D",
") 	c #998F89",
"! 	c #B4B5B3",
"~ 	c #C9CCCA",
"{ 	c #D1D4D3",
"] 	c #D5D8D6",
"^ 	c #D2D5D4",
"/ 	c #CCCFCE",
"( 	c #BEC0BF",
"_ 	c #ABAEAC",
": 	c #A7A9A7",
"< 	c #A5A6A3",
"[ 	c #998E87",
"} 	c #A08970",
"| 	c #AF946E",
"1 	c #9F8569",
"2 	c #9B918C",
"3 	c #CCCDCC",
"4 	c #E6E8E7",
"5 	c #E5E7E7",
"6 	c #E0E3E3",
"7 	c #DCDFDF",
"8 	c #D8DADA",
"9 	c #D0D2D2",
"0 	c #C1C3C3",
"a 	c #B6B8B7",
"b 	c #ACAEAE",
"c 	c #AEAFAF",
"d 	c #B8BABA",
"e 	c #C5C7C6",
"f 	c #C2C3C2",
"g 	c #A19793",
"h 	c #A1876C",
"i 	c #977F6D",
"j 	c #B3B2B0",
"k 	c #E5E7E6",
"l 	c #F3F5F5",
"m 	c #F1F3F3",
"n 	c #E7E9E9",
"o 	c #DCDFE0",
"p 	c #D5D7D8",
"q 	c #C9CBCC",
"r 	c #BDBFBF",
"s 	c #AFB0B1",
"t 	c #A8AAAA",
"u 	c #A7A9A9",
"v 	c #B1B3B4",
"w 	c #C3C5C5",
"x 	c #D4D6D5",
"y 	c #BEBCBB",
"z 	c #9F8978",
"A 	c #977E6E",
"B 	c #B9BAB9",
"C 	c #DEE0E0",
"D 	c #EDEEEF",
"E 	c #F9FAFA",
"F 	c #F8F9F9",
"G 	c #E9EBEC",
"H 	c #D9DBDC",
"I 	c #CBCDCE",
"J 	c #BBBDBE",
"K 	c #AEB0B0",
"L 	c #A5A7A8",
"M 	c #A2A5A6",
"N 	c #ABB0B2",
"O 	c #A6ABAD",
"P 	c #A2A4A5",
"Q 	c #A7A9AA",
"R 	c #B2B4B4",
"S 	c #D5D8D8",
"T 	c #D0D0CF",
"U 	c #A99487",
"V 	c #9B7E69",
"W 	c #AEADAA",
"X 	c #C9CAC9",
"Y 	c #D7D8D7",
"Z 	c #EDEDEC",
"` 	c #FCFAF9",
" .	c #FAF9F8",
"..	c #E9E8E8",
"+.	c #D4D4D3",
"@.	c #C2C2C1",
"#.	c #B1B2B1",
"$.	c #A6A7A7",
"%.	c #ABB0B1",
"&.	c #B9C1C4",
"*.	c #C0C8CA",
"=.	c #BFC6C8",
"-.	c #B5BCBD",
";.	c #A8ACAC",
">.	c #A8A9A9",
",.	c #B6B6B6",
"'.	c #C8C9C8",
").	c #DDDDDC",
"!.	c #DCDBD8",
"~.	c #B69F90",
"{.	c #A8896E",
"].	c #ABA9A4",
"^.	c #C0BFB1",
"/.	c #D1CCB1",
"(.	c #E1DBC2",
"_.	c #EFE9D1",
":.	c #F8F2DB",
"<.	c #F8F1DA",
"[.	c #EDE6CE",
"}.	c #DFD8BF",
"|.	c #D0C9AE",
"1.	c #CCC7AC",
"2.	c #D5D2B9",
"3.	c #D6D4BC",
"4.	c #C7CAC3",
"5.	c #C3C9C9",
"6.	c #C8CAC1",
"7.	c #D4D3BA",
"8.	c #D5D3BA",
"9.	c #D2CEB4",
"0.	c #C9C4A7",
"a.	c #D5D0B5",
"b.	c #E3DDC5",
"c.	c #ECE6D1",
"d.	c #E2DBD6",
"e.	c #BA9E88",
"f.	c #B69978",
"g.	c #A7978A",
"h.	c #C6CCCB",
"i.	c #C9C1AD",
"j.	c #BDA87B",
"k.	c #BB9D6C",
"l.	c #C99F68",
"m.	c #D0A169",
"n.	c #D0A068",
"o.	c #CF9F67",
"p.	c #D0A067",
"q.	c #C99B68",
"r.	c #C9BA9D",
"s.	c #CFCFCB",
"t.	c #CDC7B7",
"u.	c #BFAC7E",
"v.	c #BA9E6E",
"w.	c #C69D67",
"x.	c #CD9F67",
"y.	c #C19C68",
"z.	c #BBA273",
"A.	c #C5B189",
"B.	c #D9D6D1",
"C.	c #DDCFC6",
"D.	c #B89B7D",
"E.	c #C0A47E",
"F.	c #B8BBB8",
"G.	c #CED4D5",
"H.	c #D2D4D2",
"I.	c #D2CEC7",
"J.	c #BEB09E",
"K.	c #734E3E",
"L.	c #762E1A",
"M.	c #8D3D1F",
"N.	c #903E1F",
"O.	c #964321",
"P.	c #BD652A",
"Q.	c #AF7C5A",
"R.	c #D7D1BF",
"S.	c #D1D2CF",
"T.	c #CFCDC7",
"U.	c #C2B7A7",
"V.	c #7F604D",
"W.	c #63251C",
"X.	c #99816A",
"Y.	c #CDC5B7",
"Z.	c #CFCEC9",
"`.	c #CDD1CF",
" +	c #E0DFDD",
".+	c #D8C0A3",
"++	c #CCB88D",
"@+	c #BFB997",
"#+	c #CCD1D0",
"$+	c #D3D8D9",
"%+	c #DBDFDE",
"&+	c #DFE1DE",
"*+	c #DDDAD3",
"=+	c #BDAA8F",
"-+	c #592422",
";+	c #5E1B19",
">+	c #712B1D",
",+	c #7F3421",
"'+	c #833622",
")+	c #833623",
"!+	c #B0612D",
"~+	c #D37C35",
"{+	c #B96A36",
"]+	c #BEA78C",
"^+	c #D5D3CC",
"/+	c #D6D9D7",
"(+	c #D4D3CF",
"_+	c #C5B79E",
":+	c #88654B",
"<+	c #D5C9B3",
"[+	c #DDDDD8",
"}+	c #D9DCD9",
"|+	c #D4D8D5",
"1+	c #D5D8D5",
"2+	c #F0EAD2",
"3+	c #CBB68E",
"4+	c #DBD3A1",
"5+	c #B7BBAF",
"6+	c #E1E4E2",
"7+	c #E4E7E6",
"8+	c #E8EBE8",
"9+	c #E8EAE7",
"0+	c #E7E7E1",
"a+	c #DED3BB",
"b+	c #835E47",
"c+	c #4F0B1B",
"d+	c #56151C",
"e+	c #6E2B22",
"f+	c #8C462B",
"g+	c #D88941",
"h+	c #D98A40",
"i+	c #CB7D3D",
"j+	c #AB704D",
"k+	c #D4CAB6",
"l+	c #E0E0DB",
"m+	c #E2E3DF",
"n+	c #DFD7C6",
"o+	c #CFB789",
"p+	c #E2DCCE",
"q+	c #E7E7E3",
"r+	c #E4E6E3",
"s+	c #DDE0DC",
"t+	c #DFE2DE",
"u+	c #E6E7DE",
"v+	c #E2D9AB",
"w+	c #D6D4A9",
"x+	c #C7CBC6",
"y+	c #ECEEEB",
"z+	c #EEF0ED",
"A+	c #F1F2EE",
"B+	c #F1F2ED",
"C+	c #F0EFE9",
"D+	c #E7DFCF",
"E+	c #BFAE84",
"F+	c #785A48",
"G+	c #4E0C1F",
"H+	c #4E0A1F",
"I+	c #4F0C1F",
"J+	c #7C452C",
"K+	c #DF974E",
"L+	c #DE964C",
"M+	c #D38B49",
"N+	c #BD7944",
"O+	c #B2937B",
"P+	c #E6E1D4",
"Q+	c #ECEBE5",
"R+	c #E9E4D8",
"S+	c #DED2A7",
"T+	c #ECE6DC",
"U+	c #F0F0EB",
"V+	c #EEEFEB",
"W+	c #E6E7E3",
"X+	c #E8EAE5",
"Y+	c #E3E4E0",
"Z+	c #ECE9C4",
"`+	c #CECBA5",
" @	c #D5D7D4",
".@	c #E9EAE7",
"+@	c #F0F1ED",
"@@	c #F2F2EE",
"#@	c #EFEFEA",
"$@	c #E8E3D6",
"%@	c #D4C7A7",
"&@	c #C3B5A0",
"*@	c #572D34",
"=@	c #4D0A23",
"-@	c #4D0A22",
";@	c #511424",
">@	c #B27A46",
",@	c #E1A059",
"'@	c #D79854",
")@	c #CA8C50",
"!@	c #AD7550",
"~@	c #CBBDAB",
"{@	c #E8E4DC",
"]@	c #EBE6DD",
"^@	c #D2C6A5",
"/@	c #EDE9E0",
"(@	c #F0F0EC",
"_@	c #EDEFEC",
":@	c #EBECE8",
"<@	c #EBECE9",
"[@	c #DDDFDB",
"}@	c #E7E4C4",
"|@	c #E1D5AE",
"1@	c #B6AD96",
"2@	c #DEE1DE",
"3@	c #E9EBE8",
"4@	c #EDEEEB",
"5@	c #E9EAE6",
"6@	c #E0DCD3",
"7@	c #C6B9A3",
"8@	c #DCD3C6",
"9@	c #948477",
"0@	c #4C1028",
"a@	c #4C0B26",
"b@	c #67372F",
"c@	c #D39C5C",
"d@	c #DCA360",
"e@	c #D09A5B",
"f@	c #C08855",
"g@	c #A6826C",
"h@	c #DFD8CA",
"i@	c #E7E1D7",
"j@	c #C8BCA5",
"k@	c #E9E5DE",
"l@	c #E3E5E3",
"m@	c #E1E2E0",
"n@	c #E3E5E2",
"o@	c #DDDFDC",
"p@	c #D0C8B3",
"q@	c #E0D4AD",
"r@	c #D9CDA8",
"s@	c #9E988E",
"t@	c #DFE2DF",
"u@	c #EBEDEA",
"v@	c #EAECEA",
"w@	c #E6E8E6",
"x@	c #E7E9E6",
"y@	c #E9E9E5",
"z@	c #C1B8A6",
"A@	c #DFD9D2",
"B@	c #D1C8BA",
"C@	c #624548",
"D@	c #4B0B29",
"E@	c #4D0E29",
"F@	c #966B47",
"G@	c #DCAA67",
"H@	c #D5A464",
"I@	c #CA9960",
"J@	c #B28259",
"K@	c #BAA89A",
"L@	c #E5DCD0",
"M@	c #C3B9A7",
"N@	c #E5E3DB",
"O@	c #E9E9E6",
"P@	c #E3E4E2",
"Q@	c #DEDFDD",
"R@	c #E2E3E1",
"S@	c #B0ABA1",
"T@	c #DCCFAA",
"U@	c #CEC0A0",
"V@	c #938F8B",
"W@	c #E1E4E1",
"X@	c #EAECE9",
"Y@	c #EBEDE9",
"Z@	c #EBEBE7",
"`@	c #E3DED5",
" #	c #C3BBAA",
".#	c #E5E1DA",
"+#	c #E8E2DA",
"@#	c #AA9E92",
"##	c #4D192F",
"$#	c #56242E",
"%#	c #C2955E",
"&#	c #DAAB6A",
"*#	c #D0A266",
"=#	c #C3935F",
"-#	c #A57B62",
";#	c #D3C7B9",
">#	c #C5BBAA",
",#	c #E8E5DE",
"'#	c #E6E7E5",
")#	c #E6E7E4",
"!#	c #E7E8E5",
"~#	c #E2E2DF",
"{#	c #9A9692",
"]#	c #D1C5A4",
"^#	c #C4B597",
"/#	c #8A8685",
"(#	c #E4E5E1",
"_#	c #EEF0EC",
":#	c #EFF0ED",
"<#	c #EDEDE9",
"[#	c #E8E4DA",
"}#	c #C5BBA9",
"|#	c #EBE9E2",
"1#	c #EDECE7",
"2#	c #DED7CA",
"3#	c #745F5A",
"4#	c #4B0C28",
"5#	c #4C0B28",
"6#	c #4C0C28",
"7#	c #7D523C",
"8#	c #DAA765",
"9#	c #D8A563",
"0#	c #CE9A5F",
"a#	c #B98557",
"b#	c #B39476",
"c#	c #D4C9AB",
"d#	c #ECE8E0",
"e#	c #EDEEEA",
"f#	c #DEE0DD",
"g#	c #908B8A",
"h#	c #CBBC9D",
"i#	c #817B7A",
"j#	c #ECEDEB",
"k#	c #EEF0EE",
"l#	c #EFF1ED",
"m#	c #E8E4D8",
"n#	c #C1B4A1",
"o#	c #EFEFEB",
"p#	c #ECE9E2",
"q#	c #BDB2A2",
"r#	c #522531",
"s#	c #4C0B25",
"t#	c #501626",
"u#	c #B17E4C",
"v#	c #DEA35E",
"w#	c #CE9557",
"x#	c #B47B4E",
"y#	c #B58457",
"z#	c #E3D7AB",
"A#	c #ECE8E1",
"B#	c #F0F0ED",
"C#	c #888281",
"D#	c #81766F",
"E#	c #D1D3D1",
"F#	c #E4E6E4",
"G#	c #E5E7E5",
"H#	c #E7E9E8",
"I#	c #EAEAE7",
"J#	c #E3DDD0",
"K#	c #C4B299",
"L#	c #E4E1DB",
"M#	c #EAEBE8",
"N#	c #EAEAE6",
"O#	c #E2DCD1",
"P#	c #8A7668",
"Q#	c #4D0D22",
"R#	c #4D0A21",
"S#	c #4E0A22",
"T#	c #66332A",
"U#	c #B77D48",
"V#	c #AF7445",
"W#	c #A0613F",
"X#	c #C38952",
"Y#	c #E5D6A5",
"Z#	c #E7E3DC",
"`#	c #E7E9E7",
" $	c #C7CAC8",
".$	c #877D75",
"+$	c #8B7A6C",
"@$	c #B5B7B5",
"#$	c #D6D8D7",
"$$	c #DBDDDD",
"%$	c #E1E3E2",
"&$	c #E4E7E5",
"*$	c #E3E2E0",
"=$	c #D9CFC0",
"-$	c #CCB089",
";$	c #E4DFD6",
">$	c #E6E7E6",
",$	c #E2E0DD",
"'$	c #C7BCAA",
")$	c #5D3635",
"!$	c #4E0A1D",
"~$	c #4E0A1E",
"{$	c #4F0B1E",
"]$	c #6B2D26",
"^$	c #8A442F",
"/$	c #9B5334",
"($	c #C5844A",
"_$	c #E4D39F",
":$	c #E2DFD9",
"<$	c #E4E5E4",
"[$	c #E8EAE9",
"}$	c #B1B4B3",
"|$	c #908071",
"1$	c #9F8A74",
"2$	c #8B8886",
"3$	c #CBCDCD",
"4$	c #CDCFCF",
"5$	c #D7DADA",
"6$	c #DDDFDF",
"7$	c #DFDEDA",
"8$	c #D1BEA7",
"9$	c #D2A16A",
"0$	c #E2D9CB",
"a$	c #E5E4E3",
"b$	c #DFE2E2",
"c$	c #DADCDB",
"d$	c #D4CFC8",
"e$	c #9C8872",
"f$	c #4F121D",
"g$	c #4F0A1A",
"h$	c #510D1A",
"i$	c #743023",
"j$	c #9B4F2D",
"k$	c #C87F42",
"l$	c #E4D098",
"m$	c #DDDAD5",
"n$	c #E1E3E3",
"o$	c #E8EAEA",
"p$	c #EDEFEF",
"q$	c #DDE0DF",
"r$	c #9D9B9B",
"s$	c #A28D77",
"t$	c #7A6A61",
"u$	c #BDBEBD",
"v$	c #BFC1C1",
"w$	c #CBCCCC",
"x$	c #D6D5D2",
"y$	c #B98F70",
"z$	c #C3763C",
"A$	c #CDB99F",
"B$	c #DCDCDB",
"C$	c #D3D5D5",
"D$	c #C7C6C5",
"E$	c #BEB29F",
"F$	c #6C4A3C",
"G$	c #4F0916",
"H$	c #500916",
"I$	c #530E17",
"J$	c #833B20",
"K$	c #C87A3B",
"L$	c #E3CD90",
"M$	c #D7D4CF",
"N$	c #E0E2E2",
"O$	c #ECEEEE",
"P$	c #897C75",
"Q$	c #97816A",
"R$	c #908C8A",
"S$	c #C7C3B5",
"T$	c #E1D9B7",
"U$	c #C7AE88",
"V$	c #8C482B",
"W$	c #8E441F",
"X$	c #976448",
"Y$	c #DFCEA6",
"Z$	c #E2DCC1",
"`$	c #CBC9C4",
" %	c #B2AEA8",
".%	c #A49074",
"+%	c #531B1C",
"@%	c #4F0913",
"#%	c #541114",
"$%	c #A8642F",
"%%	c #E0C889",
"&%	c #D0CDC8",
"*%	c #DFE0E0",
"=%	c #EFF1F1",
"-%	c #E8E9E9",
";%	c #AAA7A8",
">%	c #9A846E",
",%	c #806D5E",
"'%	c #AFAEAB",
")%	c #C0B49C",
"!%	c #AA8E6B",
"~%	c #8F715D",
"{%	c #897060",
"]%	c #8B7363",
"^%	c #8D7463",
"/%	c #9C7E66",
"(%	c #B79E79",
"_%	c #C1BCB1",
":%	c #A7AAAA",
"<%	c #B9B4A6",
"[%	c #8D7761",
"}%	c #816857",
"|%	c #816858",
"1%	c #866C57",
"2%	c #BAA67F",
"3%	c #C8C5C2",
"4%	c #DADCDC",
"5%	c #C9CBCB",
"6%	c #8A796D",
"7%	c #81736D",
"8%	c #BEBDB9",
"9%	c #B8B6B1",
"0%	c #C8C4BF",
"a%	c #E5E0DB",
"b%	c #F5F0EB",
"c%	c #F3EEE9",
"d%	c #E0DBD6",
"e%	c #C3C0BC",
"f%	c #B4B7B6",
"g%	c #BEC4C6",
"h%	c #C6CDCE",
"i%	c #C7CDCD",
"j%	c #C5C7C4",
"k%	c #C5C6C2",
"l%	c #C4C5C1",
"m%	c #C1C1BF",
"n%	c #C4C5C3",
"o%	c #B7B9B7",
"p%	c #B7BAB9",
"q%	c #CED0CF",
"r%	c #D1D3D3",
"s%	c #908681",
"t%	c #A2896B",
"u%	c #918783",
"v%	c #D1D4D4",
"w%	c #C8CDCD",
"x%	c #C9CCCC",
"y%	c #DADBDB",
"z%	c #D7D8D8",
"A%	c #C4C8C9",
"B%	c #C4CBCC",
"C%	c #CBD2D4",
"D%	c #CDD4D5",
"E%	c #CFD5D5",
"F%	c #CED4D4",
"G%	c #D0D6D6",
"H%	c #CED4D6",
"I%	c #C8CFD0",
"J%	c #C9D0D2",
"K%	c #CFD5D6",
"L%	c #CBD1D1",
"M%	c #C4C8C7",
"N%	c #948B87",
"O%	c #A2896C",
"P%	c #A48C6C",
"Q%	c #9A8F8A",
"R%	c #D5D5D6",
"S%	c #D1D5D4",
"T%	c #CFD5D4",
"U%	c #D0D4D4",
"V%	c #D3D8D7",
"W%	c #D5DBDB",
"X%	c #D5DADB",
"Y%	c #D0D6D7",
"Z%	c #D5DADA",
"`%	c #D8DDDD",
" &	c #D7DCDB",
".&	c #D7DCDC",
"+&	c #D1D8D9",
"@&	c #D2D8D9",
"#&	c #CDD3D3",
"$&	c #C4C8C8",
"%&	c #A48B6C",
"&&	c #978577",
"*&	c #C0BCBC",
"=&	c #D0D3D1",
"-&	c #D1D4D1",
";&	c #DCE0DD",
">&	c #DFE3E0",
",&	c #E1E5E3",
"'&	c #DDE1E0",
")&	c #E1E4E3",
"!&	c #DDE0E0",
"~&	c #D6DBDB",
"{&	c #D6DBDA",
"]&	c #C5CAC9",
"^&	c #AAA9A9",
"/&	c #8D7C6C",
"(&	c #A28B6A",
"_&	c #93857D",
":&	c #A8A6A5",
"<&	c #B9BCBB",
"[&	c #C7CBC8",
"}&	c #DADEDB",
"|&	c #DCDFDD",
"1&	c #D9DBD8",
"2&	c #C3C8C5",
"3&	c #B0B4B3",
"4&	c #9B9A99",
"5&	c #85776D",
"6&	c #A08A68",
"7&	c #A6906A",
"8&	c #8D7B61",
"9&	c #73655E",
"0&	c #797270",
"a&	c #7E7C7A",
"b&	c #7D7B7A",
"c&	c #7E7C7B",
"d&	c #7F7C7A",
"e&	c #77706E",
"f&	c #71625A",
"g&	c #8C795E",
"h&	c #A69069",
"i&	c #B8A172",
"j&	c #AB946A",
"k&	c #A58D65",
"l&	c #AB9469",
"m&	c #B9A172",
"                              . .                               ",
"                    + @ # $ % & * = - ; @ >                     ",
"                , ' ) ! ~ { ] ^ / ( _ : < [ } |                 ",
"              1 2 3 4 5 6 7 8 9 0 a b c d e f g h               ",
"            i j k l m n o p q r s t t u t v w x y z             ",
"          A B C D E F G H I J K L M N O P Q R 0 S T U           ",
"        V W X Y Z `  ...+.@.#.$.%.&.*.=.-.;.>.,.'.).!.~.        ",
"      {.].^./.(._.:.<.[.}.|.1.2.3.4.5.6.7.8.9.0.a.b.c.d.e.      ",
"    f.g.h.i.j.k.l.m.m.m.n.o.p.n.q.r.s.t.u.v.w.x.y.z.A.B.C.D.    ",
"    E.F.G.H.I.J.K.L.M.N.N.N.N.O.P.Q.R.S.T.U.V.W.X.Y.Z.`. +.+    ",
"  ++@+#+$+%+&+*+=+-+;+>+,+'+)+!+~+{+]+^+/+(+_+:+<+[+}+|+1+2+3+  ",
"  4+5+6+7+8+9+0+a+b+c+c+d+e+f+g+h+i+j+k+l+m+n+o+p+q+r+s+t+u+v+  ",
"  w+x+y+z+A+B+C+D+E+F+G+H+I+J+K+L+M+N+O+P+Q+R+S+T+U+V+W+X+Y+Z+  ",
"  `+ @.@+@@@@@#@$@%@&@*@=@-@;@>@,@'@)@!@~@{@]@^@/@(@_@:@<@[@}@  ",
"|@1@2@3@<@4@4@5@6@7@8@9@0@a@a@b@c@d@e@f@g@h@i@j@k@.@l@m@n@o@p@q@",
"r@s@t@u@v@w@x@y@6@z@A@B@C@D@D@E@F@G@H@I@J@K@L@M@N@O@P@Q@R@m+S@T@",
"U@V@W@v@X@3@Y@Z@`@ #.#+#@###D@D@$#%#&#*#=#-#;#>#,#Z@'#)#!#~#{#]#",
"^#/#(#_#:#:#:#<#[#}#|#1#2#3#4#5#6#7#8#9#0#a#b#c#d#e#:#e#V+f#g#h#",
"  i#&+y+j#k#l#U+m#n#,#o#p#q#r#s#s#t#u#v#w#x#y#z#A#B#_@.@<@1+C#  ",
"  D#E#F#G#H#3@I#J#K#L#M#N#O#P#Q#R#S#T#U#V#W#X#Y#Z#<@X@w@`# $.$  ",
"  +$@$#$$$%$&$*$=$-$;$>$k ,$'$)$!$~${$]$^$/$($_$:$<$4 [$4 }$|$  ",
"  1$2$3$4$5$6$7$8$9$0$a$b$c$d$e$f$g$g$h$i$j$k$l$m$n$o$p$q$r$s$  ",
"    t$u$v$w$x$h@y$z$A$.#B$C$D$E$F$G$H$H$I$J$K$L$M$N$O$l 9 P$    ",
"    Q$R$f S$T$U$V$W$X$Y$Z$`$B  %.%+%@%@%@%#%$%%%&%*%=%-%;%>%    ",
"      ,%'%)%!%~%{%]%^%/%(%_%K :%<%[%}%}%}%|%1%2%3%4%o$5%6%      ",
"        7%8%9%0%a%b%c%d%e%f%g%h%i%j%k%l%m%l%n%o%p%q%r%s%        ",
"        t%u%v%w%x%y%z%A%B%C%C%D%E%F%G%H%h%I%J%K%L%M%N%O%        ",
"          P%Q%R%S%T%U%V%W%X%Y%Z%`% &.&+&@&H%H%#&$&& %&          ",
"              &&*&=&-&;&>&,&'&'&)&)&!&~&{&#+]&^&/&              ",
"                (&_&:&<&[&H.}&|&2@1&-&2&3&4&5&6&                ",
"                    7&8&9&0&a&b&c&d&e&f&g&h&                    ",
"                          i&j&k&k&l&m&                          "};
