/* XPM */
static char * C:\Users\Lu\Desktop\Shoreline\bitcoin32_xpm[] = {
"32 32 307 2",
"  	c #FFFFFF",
". 	c #FEFEFE",
"+ 	c #FEFEFD",
"@ 	c #FDFDFD",
"# 	c #FAFAF9",
"$ 	c #F4F4F2",
"% 	c #F1F0ED",
"& 	c #EFEFED",
"* 	c #EDEDED",
"= 	c #ECECEC",
"- 	c #EFEFEF",
"; 	c #F6F6F6",
"> 	c #F3F2EF",
", 	c #E9E9E7",
"' 	c #E4E3E2",
") 	c #EDECEA",
"! 	c #F0F0EE",
"~ 	c #E8E7E7",
"{ 	c #DEDEDE",
"] 	c #E6E6E6",
"^ 	c #F6F5F3",
"/ 	c #F0EFED",
"( 	c #B9B8B9",
"_ 	c #AFAFAF",
": 	c #ADADAD",
"< 	c #ECECEB",
"[ 	c #F1F1F1",
"} 	c #FEFDFD",
"| 	c #F3F3F1",
"1 	c #EEEDED",
"2 	c #CDCDCC",
"3 	c #B4B4B5",
"4 	c #C2C2C2",
"5 	c #EEEEEE",
"6 	c #C3C3C3",
"7 	c #E0E0E0",
"8 	c #E1E1E1",
"9 	c #E4E4E4",
"0 	c #E2E2E2",
"a 	c #E3E3E3",
"b 	c #E8E8E8",
"c 	c #EBEBEA",
"d 	c #FCFBFB",
"e 	c #F3F2F0",
"f 	c #EEEEED",
"g 	c #EDECEC",
"h 	c #CFCFCF",
"i 	c #A1A1A2",
"j 	c #D5D5D5",
"k 	c #E7E7E6",
"l 	c #989999",
"m 	c #DDDDDC",
"n 	c #9A9A9B",
"o 	c #BEBEBF",
"p 	c #AEAEAE",
"q 	c #BABABA",
"r 	c #9B9C9B",
"s 	c #C4C4C5",
"t 	c #CECECE",
"u 	c #F0F0F0",
"v 	c #E7E6E5",
"w 	c #FAFAFA",
"x 	c #F5F4F3",
"y 	c #F2F1F1",
"z 	c #DDDDDD",
"A 	c #9B9A9A",
"B 	c #B8B9B9",
"C 	c #D3D3D3",
"D 	c #9B9B9B",
"E 	c #D6D7D7",
"F 	c #D6D6D6",
"G 	c #939392",
"H 	c #7C7D7C",
"I 	c #C6C6C6",
"J 	c #BEBFC0",
"K 	c #CCCDCD",
"L 	c #D0D0D1",
"M 	c #E5E4E3",
"N 	c #FCFCFC",
"O 	c #F9F9F8",
"P 	c #EEEDEE",
"Q 	c #C5C5C5",
"R 	c #D0D0D0",
"S 	c #E5E5E4",
"T 	c #959596",
"U 	c #ECEBEA",
"V 	c #DCDCDB",
"W 	c #828282",
"X 	c #DFDFDF",
"Y 	c #8D8E8E",
"Z 	c #ADAEAE",
"` 	c #BDBEC0",
" .	c #BFC0C0",
"..	c #C1C1C2",
"+.	c #F7F7F7",
"@.	c #FFFEFE",
"#.	c #EAEAEA",
"$.	c #ECEDEC",
"%.	c #EBEBEB",
"&.	c #CBCBCB",
"*.	c #D1D1D1",
"=.	c #DDDCDC",
"-.	c #F2F2F2",
";.	c #BDBDBE",
">.	c #C3C4C5",
",.	c #C3C3C4",
"'.	c #C2C3C4",
").	c #D5D5D6",
"!.	c #E5E4E4",
"~.	c #F9F9F9",
"{.	c #F8F8F8",
"].	c #E6E6E5",
"^.	c #A4A4A5",
"/.	c #CCCCCC",
"(.	c #B6B6B7",
"_.	c #F1F1F0",
":.	c #ACACAC",
"<.	c #C0C0C2",
"[.	c #C2C3C3",
"}.	c #CDCECE",
"|.	c #898989",
"1.	c #D8D8D8",
"2.	c #DCDCDD",
"3.	c #E5E5E6",
"4.	c #EFEFEE",
"5.	c #F0F0EF",
"6.	c #B5B5B5",
"7.	c #D3D3D4",
"8.	c #E3E4E3",
"9.	c #BCBDBE",
"0.	c #BBBCBD",
"a.	c #99999A",
"b.	c #FFFEFF",
"c.	c #EDEDEE",
"d.	c #A6A6A7",
"e.	c #C7C6C6",
"f.	c #D4D5D4",
"g.	c #9F9E9F",
"h.	c #ABABAB",
"i.	c #A8A8A9",
"j.	c #B9B9B9",
"k.	c #B2B2B2",
"l.	c #9C9D9D",
"m.	c #ACADAC",
"n.	c #B6B6B6",
"o.	c #C4C4C4",
"p.	c #6D6E6F",
"q.	c #A7A7A9",
"r.	c #787879",
"s.	c #B8B9BA",
"t.	c #727272",
"u.	c #A8A9A9",
"v.	c #777878",
"w.	c #CECFCE",
"x.	c #A5A5A6",
"y.	c #8F8F8F",
"z.	c #D2D2D2",
"A.	c #D2D2D3",
"B.	c #E4E4E3",
"C.	c #A5A5A5",
"D.	c #838484",
"E.	c #B5B6B7",
"F.	c #79797A",
"G.	c #686969",
"H.	c #868787",
"I.	c #7A7A7A",
"J.	c #BFC0C1",
"K.	c #7E7E7F",
"L.	c #D9D9D9",
"M.	c #8E8E8E",
"N.	c #AAAAAA",
"O.	c #C8C9C9",
"P.	c #AAAAAB",
"Q.	c #6E6F70",
"R.	c #B2B2B3",
"S.	c #78797A",
"T.	c #BEBEC0",
"U.	c #676868",
"V.	c #8F9090",
"W.	c #717171",
"X.	c #BDBEBF",
"Y.	c #B3B2B2",
"Z.	c #DCDBDB",
"`.	c #C7C7C7",
" +	c #D1D1D0",
".+	c #BFBFC0",
"++	c #BABABB",
"@+	c #E3E2E2",
"#+	c #BAB9B9",
"$+	c #A7A7A7",
"%+	c #9FA0A0",
"&+	c #9B9B9C",
"*+	c #A7A8A9",
"=+	c #9E9F9F",
"-+	c #999A9B",
";+	c #9D9D9E",
">+	c #929394",
",+	c #8D8E8F",
"'+	c #A2A2A3",
")+	c #A9A9AA",
"!+	c #A0A0A1",
"~+	c #8F8F90",
"{+	c #C8C8C8",
"]+	c #A9A8A8",
"^+	c #DADAD9",
"/+	c #919192",
"(+	c #939394",
"_+	c #C4C5C5",
":+	c #C0C0C1",
"<+	c #DAD9D5",
"[+	c #DFDDD6",
"}+	c #EDECE8",
"|+	c #CDCDCD",
"1+	c #A8A8A8",
"2+	c #C1C1C3",
"3+	c #BDBFC0",
"4+	c #BEBFC1",
"5+	c #DFDEDB",
"6+	c #D7D6D2",
"7+	c #E4E1D9",
"8+	c #E8E4D9",
"9+	c #E7E4DA",
"0+	c #F3F3F0",
"a+	c #F3F3F3",
"b+	c #B0B1B2",
"c+	c #C9C9C9",
"d+	c #AEAEAF",
"e+	c #B2B2B4",
"f+	c #BABBBC",
"g+	c #A9AAAC",
"h+	c #A9AAAB",
"i+	c #C1C1C0",
"j+	c #E8E4DC",
"k+	c #E5E3DB",
"l+	c #DFE0DD",
"m+	c #E7E7E7",
"n+	c #AEAFB0",
"o+	c #A6A6A6",
"p+	c #ABABAC",
"q+	c #B4B5B6",
"r+	c #A1A2A3",
"s+	c #8B8B8C",
"t+	c #BBBCBC",
"u+	c #707171",
"v+	c #BAB8B4",
"w+	c #D2D1CD",
"x+	c #68696A",
"y+	c #E2DFD8",
"z+	c #E4E3DB",
"A+	c #E0E1DD",
"B+	c #DEE0DD",
"C+	c #DFE1DE",
"D+	c #FBFBFB",
"E+	c #D9D8D8",
"F+	c #939393",
"G+	c #C7C8C9",
"H+	c #A0A0A2",
"I+	c #939395",
"J+	c #6F6F71",
"K+	c #D6D3CB",
"L+	c #E6E4DA",
"M+	c #626364",
"N+	c #D6D6D3",
"O+	c #DDDFDC",
"P+	c #DADBD9",
"Q+	c #F4F4F4",
"R+	c #C0C0C0",
"S+	c #B8B8B8",
"T+	c #929392",
"U+	c #CACACA",
"V+	c #9F9FA1",
"W+	c #919293",
"X+	c #A7A8A8",
"Y+	c #8A8B8B",
"Z+	c #C1C2C2",
"`+	c #707172",
" @	c #D2D1CB",
".@	c #E0E1DC",
"+@	c #636365",
"@@	c #D4D4D1",
"#@	c #DADBDA",
"$@	c #D7D7D7",
"%@	c #B7B7B7",
"&@	c #E2E1E1",
"*@	c #C1C1C1",
"=@	c #B1B1B1",
"-@	c #ABACAC",
";@	c #B8B8B9",
">@	c #898A8B",
",@	c #9F9FA0",
"'@	c #858687",
")@	c #C4C4C3",
"!@	c #727374",
"~@	c #C3C3C1",
"{@	c #D1D2CF",
"]@	c #636465",
"^@	c #C5C5C4",
"/@	c #E5E5E5",
"(@	c #EAEAE9",
"_@	c #F6F5F4",
":@	c #D6D6D7",
"<@	c #DBDBDB",
"[@	c #DADADA",
"}@	c #E3E3E2",
"|@	c #E2E3E2",
"1@	c #E0E1E0",
"2@	c #E9E9E9",
"                                                                ",
"                                                                ",
"                                                                ",
"                                                                ",
"                    . + + + + @ @ @ @ @                         ",
"                # $ % % % & * = = = = = - ; .                   ",
"            # > , ' ) ! ~ { ] = = = = = = = * ;                 ",
"        . ^ % % / ( _ * * : < = = = = = = = = = [ @             ",
"      } | % % / 1 2 3 4 5 6 5 < 7 5 8 9 0 a 0 b [ c d           ",
"    . e % / f g * h ] i j 4 k l m n o p q r s t u b v w         ",
"    x y 1 g = = = h = z A B C D E F 7 G 6 H I J K L s M N       ",
"  O 5 P = = = = 5 Q * * R : S T U V 5 W X Y Z J `  ...F +.      ",
"@.- 5 = #.$.%.= 9 &.9 * 5 z 5 8 _ *.[ =.-.z ;.` >.,.'.).!.~.    ",
"{.1 * ].^./.m (.5 * = = * u -._.:.C -.-.-.b J <.'.[.>.}.|.1.    ",
"-.= = * ^.2.9 3.4.5 %.- [ - u 5.6.7.#.8.4.X 9.0.s s ,./.a.C b.  ",
"c.= = * d.e.q - f.g.F h.~ i.j._ k.7.l.m.n.o.p.q.r.s.t.u.v.w.w   ",
"= = = * x.2.F 5 X : [ y.] 6.j.z.n.A.B.C.D.E.F.J G.H.I.J.K.2 _.  ",
"= = = * i.1.u L.6 _ -.M.8 N.O.[ 6.P.Q._ r.R.S.T.U.V.W.X.r.Y._.  ",
"= = 5 Z...`. +.+Q ++@+#+6 $+%+&+i *+=+$+-+;+>+R.,+'+)+!+~+x.].  ",
"= * u -.-.-.- {+6.{ L.]+t ^+d./+X.X.P.(+X.` ` ` J _+,.:+<+[+}+  ",
"u -.-.-.-.-.|+1+[ -.-.o.] -.2+` 3+.+4+J 3+` ` ` ` 5+6+7+8+9+0+  ",
"a+-.-.-.-.- b+c+-.-.-.%.* #.d+e+f+X.b+b+(.g+b+h+i+j+8+8+k+l++.  ",
"; -.-.-.-.m+n+C -.-.-.-.u o+p+0./+q+r+s+t+u+v+w+x+y+z+A+B+C+.   ",
"D+-.-.-.-.%.n+h -.-.-.-.E+F+G+` H+I+q.s+.+J+K+L+M+N+B+O+P+b     ",
"  Q+-.-.-.-.R+S+-.-.-.8 {+T+U+` V+W+X+Y+Z+`+ @.@+@@@#@$@1.~.    ",
"  D+-.-.-.-.%.%@/.%.&@*@< =@-@;@>@q+,@'@)@!@~@{@]@^@$@C /@      ",
"    w ~.~.~.~.{.(@X a ; ; _@X :@8 0 <@[@[@}@|@].1@8 2@3.@       ",
"                                                                ",
"                                                                ",
"                                                                ",
"                                                                ",
"                                                                "};
