/* XPM */
static char * C:\Users\Lu\Desktop\Shoreline\bitcoin64_xpm[] = {
"64 64 666 2",
"  	c #FFFFFF",
". 	c #FEFEFE",
"+ 	c #FCFCFB",
"@ 	c #FCFCFC",
"# 	c #FBFBFB",
"$ 	c #FAFAF9",
"% 	c #F5F4F2",
"& 	c #F1F0ED",
"* 	c #EEEDED",
"= 	c #EDEDED",
"- 	c #ECECEC",
"; 	c #EEEEEE",
"> 	c #F5F5F5",
", 	c #F7F7F5",
"' 	c #F2F1EF",
") 	c #F0F0EE",
"! 	c #EDEDEC",
"~ 	c #F1F2F1",
"{ 	c #FAFAFA",
"] 	c #F1F0EE",
"^ 	c #EFEFED",
"/ 	c #F1F0EF",
"( 	c #F0F0EF",
"_ 	c #F0EFEF",
": 	c #EFEFEE",
"< 	c #EFEFEF",
"[ 	c #F0F0F0",
"} 	c #FAF9F8",
"| 	c #F2F1EE",
"1 	c #EEEEEB",
"2 	c #D7D7D7",
"3 	c #D7D7D5",
"4 	c #D5D5D5",
"5 	c #E0E0DF",
"6 	c #F0EFED",
"7 	c #EEEDEC",
"8 	c #D1D1D1",
"9 	c #CDCDCE",
"0 	c #CACACA",
"a 	c #CECECE",
"b 	c #F2F2F2",
"c 	c #FDFDFD",
"d 	c #FEFEFD",
"e 	c #EDECEB",
"f 	c #C2C2C2",
"g 	c #A8A8A8",
"h 	c #909191",
"i 	c #E2E2E1",
"j 	c #ECECEB",
"k 	c #A2A3A3",
"l 	c #8F8F8F",
"m 	c #E9E9E7",
"n 	c #F8F8F8",
"o 	c #F2F2F0",
"p 	c #D7D6D6",
"q 	c #9A9A9B",
"r 	c #A4A4A6",
"s 	c #979695",
"t 	c #B4B4B4",
"u 	c #C9C9C8",
"v 	c #F1F1F1",
"w 	c #F7F7F7",
"x 	c #DBDBDB",
"y 	c #B7B7B6",
"z 	c #ABAAAB",
"A 	c #9E9EA0",
"B 	c #ADADAE",
"C 	c #B9B9B9",
"D 	c #CCCCCC",
"E 	c #E6E5E4",
"F 	c #F9F8F8",
"G 	c #F0EFEE",
"H 	c #DEDFDE",
"I 	c #A0A0A3",
"J 	c #939394",
"K 	c #C8C8C7",
"L 	c #B8B8B8",
"M 	c #E1E1E0",
"N 	c #D2D2D2",
"O 	c #D6D6D6",
"P 	c #D1D1D2",
"Q 	c #E3E3E3",
"R 	c #D9D9D9",
"S 	c #CFD0D0",
"T 	c #CFCFCF",
"U 	c #DFDFDF",
"V 	c #DCDCDC",
"W 	c #D5D5D4",
"X 	c #EBEBEB",
"Y 	c #E1E1E1",
"Z 	c #F4F3F2",
"` 	c #F9F9F9",
" .	c #D0D0D1",
"..	c #9D9D9F",
"+.	c #8B8B8C",
"@.	c #BFBFBE",
"#.	c #6B6B6C",
"$.	c #D9D9D8",
"%.	c #7A7B7C",
"&.	c #D3D2D2",
"*.	c #E1E1E2",
"=.	c #6E6F70",
"-.	c #474748",
";.	c #DDDDDC",
">.	c #696A6A",
",.	c #414141",
"'.	c #C3C3C3",
").	c #EBECEB",
"!.	c #6C6C6C",
"~.	c #9E9E9E",
"{.	c #F1EFED",
"].	c #E5E4E4",
"^.	c #BFBFBF",
"/.	c #99999A",
"(.	c #8C8C8D",
"_.	c #EAEAEA",
":.	c #D2D3D2",
"<.	c #7E7E7F",
"[.	c #A7A8A8",
"}.	c #E2E2E2",
"|.	c #8E8F8F",
"1.	c #757576",
"2.	c #909090",
"3.	c #4B4C4D",
"4.	c #898A8A",
"5.	c #4B4C4C",
"6.	c #EAEAEB",
"7.	c #ABABAC",
"8.	c #DADAD9",
"9.	c #C9CAC9",
"0.	c #DADBDB",
"a.	c #DEDDDD",
"b.	c #E6E6E5",
"c.	c #F2F1F1",
"d.	c #F2F2F1",
"e.	c #AEAEAD",
"f.	c #989898",
"g.	c #B3B3B3",
"h.	c #717272",
"i.	c #A2A2A2",
"j.	c #BBBCBC",
"k.	c #BCBCBD",
"l.	c #BABBBB",
"m.	c #BDBEBE",
"n.	c #5B5B5D",
"o.	c #CCCCCB",
"p.	c #D6D5D5",
"q.	c #999999",
"r.	c #5A5C5B",
"s.	c #A9A9A9",
"t.	c #D9D9DA",
"u.	c #C0C0BF",
"v.	c #C0C0C0",
"w.	c #BDBEBF",
"x.	c #CACBCA",
"y.	c #E9E9E8",
"z.	c #C4C5C5",
"A.	c #BEBFBF",
"B.	c #C9C9C9",
"C.	c #E9E8E6",
"D.	c #F6F6F5",
"E.	c #F3F3F3",
"F.	c #F2F0EF",
"G.	c #E6E6E6",
"H.	c #A2A1A0",
"I.	c #929292",
"J.	c #858687",
"K.	c #B1B1B2",
"L.	c #79797A",
"M.	c #CACAC9",
"N.	c #E0E0E0",
"O.	c #68696A",
"P.	c #989896",
"Q.	c #AEAEAF",
"R.	c #E3E3E2",
"S.	c #666867",
"T.	c #747472",
"U.	c #B4B4B5",
"V.	c #BEBEBF",
"W.	c #BEBFC0",
"X.	c #BDBEC0",
"Y.	c #CBCBCC",
"Z.	c #C2C3C3",
"`.	c #C1C2C3",
" +	c #C7C7C8",
".+	c #E7E7E6",
"++	c #F1F1EF",
"@+	c #EEEEED",
"#+	c #EFEEEE",
"$+	c #C1C1C2",
"%+	c #868686",
"&+	c #CBCBCA",
"*+	c #878889",
"=+	c #ACACAB",
"-+	c #E7E7E7",
";+	c #878787",
">+	c #59595A",
",+	c #9FA0A0",
"'+	c #4A4B4B",
")+	c #A3A3A3",
"!+	c #BFBFC0",
"~+	c #C3C3C4",
"{+	c #C0C0C1",
"]+	c #C5C6C6",
"^+	c #E5E5E3",
"/+	c #ECECED",
"(+	c #EEEEEF",
"_+	c #C6C6C6",
":+	c #B6B5B4",
"<+	c #CFCFCE",
"[+	c #858585",
"}+	c #9E9E9F",
"|+	c #7E7E80",
"1+	c #DFDEDC",
"2+	c #DEDEDE",
"3+	c #B6B6B5",
"4+	c #EAEAE9",
"5+	c #B9B9BA",
"6+	c #CACBCB",
"7+	c #464646",
"8+	c #919192",
"9+	c #BDBEBD",
"0+	c #BFC0C0",
"a+	c #E8E8E8",
"b+	c #F5F4F4",
"c+	c #EDEEED",
"d+	c #949595",
"e+	c #BCBDBD",
"f+	c #E9E9E9",
"g+	c #767777",
"h+	c #717273",
"i+	c #8B8C8C",
"j+	c #D3D3D3",
"k+	c #E3E2E2",
"l+	c #A09F9F",
"m+	c #E9E9EA",
"n+	c #A1A1A1",
"o+	c #BABABB",
"p+	c #C1C3C4",
"q+	c #BFC0C1",
"r+	c #E9E8E8",
"s+	c #FDFCFC",
"t+	c #EFF0EF",
"u+	c #ECEBEB",
"v+	c #E5E5E6",
"w+	c #E9EAE9",
"x+	c #DEDEDD",
"y+	c #D0D0D0",
"z+	c #BDBDBE",
"A+	c #BEBFC1",
"B+	c #C8C9C9",
"C+	c #C2C2C3",
"D+	c #C2C3C4",
"E+	c #DFDEDE",
"F+	c #F5F5F4",
"G+	c #EFEEED",
"H+	c #ABABAB",
"I+	c #9C9C9D",
"J+	c #C6C6C7",
"K+	c #CBCBCB",
"L+	c #C8C7C7",
"M+	c #A0A0A1",
"N+	c #7E7F80",
"O+	c #ADADAD",
"P+	c #E4E3E2",
"Q+	c #C3C4C5",
"R+	c #C1C2C2",
"S+	c #D4D4D2",
"T+	c #959596",
"U+	c #4A4A4A",
"V+	c #AEAEAE",
"W+	c #9B9B9C",
"X+	c #D4D4D5",
"Y+	c #ABACAC",
"Z+	c #DCDCDB",
"`+	c #7C7D7E",
" @	c #D8D8D7",
".@	c #C5C5C6",
"+@	c #C0C1C2",
"@@	c #C6C7C8",
"#@	c #BDBFC0",
"$@	c #E1E2E1",
"%@	c #C5C5C5",
"&@	c #4E4E4E",
"*@	c #999A9A",
"=@	c #C8C8C8",
"-@	c #CCCCCD",
";@	c #E5E5E5",
">@	c #F0F1F0",
",@	c #C8C8C9",
"'@	c #D6D6D5",
")@	c #F3F2F2",
"!@	c #F4F4F4",
"~@	c #D3D3D1",
"{@	c #DFDFDE",
"]@	c #EAE9E9",
"^@	c #DDDDDD",
"/@	c #D1D2D1",
"(@	c #E6E6E4",
"_@	c #E8E7E4",
":@	c #B8B8B9",
"<@	c #B5B5B7",
"[@	c #C0C1C1",
"}@	c #B6B7B8",
"|@	c #FDFCFD",
"1@	c #EFEFF1",
"2@	c #9A9B9B",
"3@	c #C9C8C7",
"4@	c #E2E1E1",
"5@	c #989899",
"6@	c #AAABAB",
"7@	c #8E8E8F",
"8@	c #B5B6B6",
"9@	c #A5A5A5",
"0@	c #D6D6D7",
"a@	c #EDECEC",
"b@	c #BEBEBE",
"c@	c #A1A2A2",
"d@	c #979798",
"e@	c #7D7D7C",
"f@	c #D3D3D2",
"g@	c #616163",
"h@	c #A2A3A2",
"i@	c #949494",
"j@	c #AFAFAF",
"k@	c #848485",
"l@	c #676869",
"m@	c #7D7E7E",
"n@	c #89898A",
"o@	c #8F8F91",
"p@	c #6E6E70",
"q@	c #A4A4A5",
"r@	c #5F5F60",
"s@	c #666666",
"t@	c #ADAEAE",
"u@	c #4B4B4B",
"v@	c #AAAAAA",
"w@	c #A0A0A0",
"x@	c #C1C1C0",
"y@	c #828284",
"z@	c #B0AFAE",
"A@	c #A3A4A3",
"B@	c #7D7E7F",
"C@	c #868687",
"D@	c #DDDCDC",
"E@	c #8D8D8D",
"F@	c #E8E8E7",
"G@	c #A5A6A7",
"H@	c #69696A",
"I@	c #ADAEAF",
"J@	c #5D5E5E",
"K@	c #4C4C4C",
"L@	c #4D4D4D",
"M@	c #F2F2F3",
"N@	c #9B9C9D",
"O@	c #B0B0B0",
"P@	c #6A6A6B",
"Q@	c #C3C4C2",
"R@	c #6A6B6C",
"S@	c #EFEEEB",
"T@	c #8B8B8D",
"U@	c #C7C8C8",
"V@	c #A2A2A3",
"W@	c #686969",
"X@	c #A5A6A5",
"Y@	c #A7A8A9",
"Z@	c #666668",
"`@	c #888889",
" #	c #818182",
".#	c #444546",
"+#	c #515252",
"@#	c #9F9FA0",
"##	c #ECEBEA",
"$#	c #CDCDCD",
"%#	c #CFCFCD",
"&#	c #BDBDBD",
"*#	c #EFEFF0",
"=#	c #666767",
"-#	c #A7A7A9",
";#	c #8A8A8B",
">#	c #808181",
",#	c #454646",
"'#	c #6C6D6D",
")#	c #7C7D7D",
"!#	c #494A4A",
"~#	c #9C9D9E",
"{#	c #E8E8E6",
"]#	c #FFFEFE",
"^#	c #AFAFB0",
"/#	c #D7D7D6",
"(#	c #BBBBBB",
"_#	c #9B9A9B",
":#	c #868788",
"<#	c #555656",
"[#	c #A5A5A4",
"}#	c #686869",
"|#	c #A7A7A8",
"1#	c #656567",
"2#	c #444545",
"3#	c #8E8F90",
"4#	c #8A8B8B",
"5#	c #4E4F4F",
"6#	c #969696",
"7#	c #BDBDBF",
"8#	c #9D9E9F",
"9#	c #949493",
"0#	c #D9D8D8",
"a#	c #EAEAE8",
"b#	c #A9A9AA",
"c#	c #B4B3B2",
"d#	c #A6A6A6",
"e#	c #6A6A6A",
"f#	c #98999A",
"g#	c #DBDBDA",
"h#	c #B4B5B6",
"i#	c #797A7B",
"j#	c #5B5B5C",
"k#	c #838384",
"l#	c #A5A5A6",
"m#	c #646466",
"n#	c #888989",
"o#	c #808081",
"p#	c #5F6160",
"q#	c #6F6F70",
"r#	c #515151",
"s#	c #7F7F80",
"t#	c #CBCAC8",
"u#	c #E7E7E5",
"v#	c #F6F6F6",
"w#	c #8F8F90",
"x#	c #BBBAB8",
"y#	c #C1C0BD",
"z#	c #BABABA",
"A#	c #A8A8A7",
"B#	c #858587",
"C#	c #A7A7A6",
"D#	c #848484",
"E#	c #737373",
"F#	c #DADADA",
"G#	c #8D8D8E",
"H#	c #747576",
"I#	c #6F7070",
"J#	c #C9C9CA",
"K#	c #9D9D9E",
"L#	c #737374",
"M#	c #787879",
"N#	c #B0B1B2",
"O#	c #636364",
"P#	c #A6A6A7",
"Q#	c #858586",
"R#	c #6B6C6D",
"S#	c #777879",
"T#	c #606062",
"U#	c #B1B2B3",
"V#	c #4A4C4D",
"W#	c #B5B5B6",
"X#	c #535353",
"Y#	c #575758",
"Z#	c #B2B2B3",
"`#	c #D4D3D0",
" $	c #E2E2E3",
".$	c #E3E3E4",
"+$	c #D7D7D8",
"@$	c #EBEAE9",
"#$	c #DAD9D8",
"$$	c #B2B2B2",
"%$	c #B8B9BA",
"&$	c #828283",
"*$	c #B9B9BB",
"=$	c #BBBCBD",
"-$	c #A9AAAB",
";$	c #B3B3B4",
">$	c #B3B4B5",
",$	c #B7B7B9",
"'$	c #B2B3B4",
")$	c #A9A9AB",
"!$	c #C2C2C1",
"~$	c #D9DAD7",
"{$	c #F4F4F3",
"]$	c #CFCFD0",
"^$	c #919191",
"/$	c #B6B6B6",
"($	c #CAC9C9",
"_$	c #ABAAA8",
":$	c #F1F1F0",
"<$	c #777778",
"[$	c #BCBDBE",
"}$	c #6C6C6D",
"|$	c #C3C4C4",
"1$	c #C4C4C5",
"2$	c #C6C7C7",
"3$	c #D2D3D1",
"4$	c #DBDAD6",
"5$	c #E1E0D9",
"6$	c #FAFAF8",
"7$	c #B5B5B5",
"8$	c #A1A1A2",
"9$	c #BBBAB9",
"0$	c #C0C1C0",
"a$	c #7D7D7E",
"b$	c #A3A4A5",
"c$	c #B1B2B2",
"d$	c #E6E4DE",
"e$	c #E7E4DB",
"f$	c #D9D7D1",
"g$	c #E6E3D9",
"h$	c #E8E4D9",
"i$	c #FDFCFB",
"j$	c #BFBFC1",
"k$	c #E2E2DF",
"l$	c #C9C9C7",
"m$	c #D6D5D3",
"n$	c #E9E5DC",
"o$	c #E8E5DA",
"p$	c #9B9B9B",
"q$	c #CCCBCB",
"r$	c #C5C6C7",
"s$	c #DFDEDB",
"t$	c #E9E7DF",
"u$	c #EAE7E1",
"v$	c #E6E3DC",
"w$	c #E8E5DC",
"x$	c #E4E3DB",
"y$	c #E5E6E3",
"z$	c #ACADAE",
"A$	c #838485",
"B$	c #D2D2D1",
"C$	c #BCBDBF",
"D$	c #E6E4E0",
"E$	c #E1E1DC",
"F$	c #DEE0DD",
"G$	c #EBECEA",
"H$	c #AEAFB0",
"I$	c #9F9F9F",
"J$	c #919293",
"K$	c #A8A8A9",
"L$	c #A4A5A5",
"M$	c #B7B8B8",
"N$	c #9E9F9F",
"O$	c #A2A3A4",
"P$	c #ABACAD",
"Q$	c #909192",
"R$	c #DEDEDA",
"S$	c #E4E2DB",
"T$	c #F3F3F2",
"U$	c #AFB0B1",
"V$	c #DEDFDF",
"W$	c #989897",
"X$	c #BBBBBC",
"Y$	c #878788",
"Z$	c #BDBFBF",
"`$	c #656566",
" %	c #727273",
".%	c #C7C5C1",
"+%	c #C5C5C4",
"@%	c #B9B9B6",
"#%	c #E5E4E1",
"$%	c #E3E2DB",
"%%	c #DFE1DD",
"&%	c #9D9D9D",
"*%	c #686868",
"=%	c #9F9FA1",
"-%	c #949495",
";%	c #88898A",
">%	c #646465",
",%	c #7B7B7B",
"'%	c #ADABA6",
")%	c #E9E6E0",
"!%	c #E7E5E0",
"~%	c #DDDCD8",
"{%	c #6B6C6E",
"]%	c #4C4D4E",
"^%	c #D3D1CD",
"/%	c #E7E4DA",
"(%	c #E2E2DC",
"_%	c #DDDFDC",
":%	c #E4E4E3",
"<%	c #979797",
"[%	c #8B8C8E",
"}%	c #68686A",
"|%	c #BABBBC",
"1%	c #5D5E5F",
"2%	c #C0BEBB",
"3%	c #E5E3DA",
"4%	c #717172",
"5%	c #CDCDCA",
"6%	c #DFE0DD",
"7%	c #DADBD9",
"8%	c #ACACAD",
"9%	c #AFAEAD",
"0%	c #B6B6B8",
"a%	c #6D6D6F",
"b%	c #BEBEC0",
"c%	c #7D7E80",
"d%	c #5C5C5D",
"e%	c #C2C1BE",
"f%	c #747475",
"g%	c #505052",
"h%	c #CBCBC6",
"i%	c #DADBDA",
"j%	c #D8D8D8",
"k%	c #ACADAD",
"l%	c #D6D5D2",
"m%	c #B6B6B7",
"n%	c #6C6D6E",
"o%	c #A6A7A7",
"p%	c #BFBEBB",
"q%	c #E0E1DC",
"r%	c #737375",
"s%	c #CACAC6",
"t%	c #DBDCDB",
"u%	c #E2E1E0",
"v%	c #7F7F7D",
"w%	c #D6D5D4",
"x%	c #8B8C8D",
"y%	c #606061",
"z%	c #8A8B8C",
"A%	c #BCBCB8",
"B%	c #C9C8C4",
"C%	c #DCDDDB",
"D%	c #9B9B9D",
"E%	c #7C7C7D",
"F%	c #B9B8B8",
"G%	c #BCBEBF",
"H%	c #999A9B",
"I%	c #7F8081",
"J%	c #D8D7D4",
"K%	c #B8B8B5",
"L%	c #DEDFDC",
"M%	c #D7D7D4",
"N%	c #6C6D6F",
"O%	c #4E4E50",
"P%	c #C6C7C4",
"Q%	c #A1A1A3",
"R%	c #C1C1C1",
"S%	c #E1E0E0",
"T%	c #EDEDEB",
"U%	c #E3E3E1",
"V%	c #ADADAC",
"W%	c #797A7A",
"X%	c #A6A7A8",
"Y%	c #78797A",
"Z%	c #929293",
"`%	c #ACACAC",
" &	c #7D7D7F",
".&	c #848585",
"+&	c #BDBCBB",
"@&	c #727374",
"#&	c #8E8E8E",
"$&	c #D9D9D6",
"%&	c #DBDCD9",
"&&	c #AFB1B0",
"*&	c #616162",
"=&	c #9B9B9A",
"-&	c #D3D3D4",
";&	c #C7C7C6",
">&	c #B7B7B7",
",&	c #CDCDCC",
"'&	c #ECEAE6",
")&	c #ACACAE",
"!&	c #AAAAAC",
"~&	c #A8A9A9",
"{&	c #C2C2BE",
"]&	c #BFC1BF",
"^&	c #BBBCBB",
"/&	c #B9BABA",
"                                                                                                                                ",
"                                                                                                                                ",
"                                                                                                                                ",
"                                                                                                                                ",
"                                                                                                                                ",
"                                                                                                                                ",
"                                                                                                                                ",
"                                                                                                                                ",
"                                                                                                                                ",
"                                        . + + + + + + + + @ # # # # # # # # # @                                                 ",
"                                    $ % & & & & & & & & * = - - - - - - - - - - ; > @                                           ",
"                              . , ' ) & & & & & & & ! ! - - - - - - - - - - - - - - - ~ {                                       ",
"                          . , ] ^ ^ ) ] / & & ( _ : < ; ; - - - - - - - - - - - - - - = = [ {                                   ",
"                        } | & & 1 2 3 4 5 6 6 < 7 8 9 0 a - - - - - - - - - - - - - - - - - - b c                               ",
"                    d % & & & & & e f g h i ; = = j k l m - - - - - - - - - - - - - - - - - - - = n                             ",
"                  + o & & & & & & 6 p q r s = - - ; t u : - - - - - - - - - - - - - - - - - - - - v w                           ",
"                $ | & & & & & & * ; x y z A B : ; = C D = < < < ; ; ; ; ; = = < < ; ; ; = < < [ ; b b E .                       ",
"              F G & & & & & & ! - ; x f H I J K < - L D - ; < M a N = ; O P 8 Q R S T U V a W X v b b Y Z c                     ",
"            ` & & & & & & * * - - ; x f =  ...+.V ; L D - : @.#.W $.%.&.*.=.-.;.- >.,.'.).!.~.- v b b M {.]..                   ",
"          # ) & & & & * * - - - - ; x f - ; ^./.(._.L D - :.<.[.}.Q |.1.v 2.3.- U 4.5.:.6.7.8.9.X b b 0.a.b.j .                 ",
"        c | c.d.( * * - - - - - - = x f - = X e.f.~.C D = g.h.i.j.k.k.l.: m.n.o.p.q.r.s.t.u.v.w.x.y.X z.A.B.C.D.                ",
"        E.& F.v - - - - - - - - - - x f - - - G.H.I.J.D ; K.L.M.< - - ; < N.O.P.Q.R.S.T.B.U.V.W.X.X.Y.Z.`. +M..+b               ",
"      F ++@+#+= - - - - - - - - - ; O $+; - - ; ;.q.%+D = &+*+=+G < ; -+) [ ;+>+'.v ,+'+)+!+W.w.X.W.z.!+~+{+]+^+E..             ",
"    c @+* /+(+- - - - - - - - - - [ _+:+< - - < < <+[+D - j }+|+1+_ 2+3+4+< 5+-.8 v 6+7+8+w.W.X.X.X.9+m.f 0+$+a+b n             ",
"    b+- - < ; = ; ; ; ; ; ; = ; c+@.f.d+e+! = = = < ^.N ; = f+L g+h+i+j+[ v k+l+v b m+n+o+W.X.w.W.p+z.~+0 q+ +r+b E.c           ",
"  s+t+- - < u+_.v+-+w+- f+v+v+_ ; v c.b E.< = - - < < ( < - v X x+y+R.[ v v v b E.[ b j z+X.X.A+B+z.C+D+W.`.`.M E+D f+          ",
"  F+G+! - ; _.o.H+I+H+J+K+L+M+g.< = = = - = = - - - = v b v b @+A.N+O+b b b b b E.b b P+W.X.X.q+A.Q+]+Q+C+C+R+S+T+U+O+s+        ",
". G+@+- - ; < : V+W+B.; ; @+X+Y+; - - - - - - - - ; ; b b b b [ Z+`+B b b b b b b b b  @W.X.X..@.@D++@W.@@D+#@$@%@&@B w         ",
"` = = - - = = = V+*@=@< [ ; _.-@< ; ; ; ; < < = [ [ [ v [ v v v ;.`+B b b v ;@>@v b b S w.X.z+Q+ +V.Q+0 W.,@,@'@.@&@B )@        ",
"!@- - - - - - ; Q.*@ +< ~@{@< ; < @+X < y.;@: b b [ [ ]@; v 4+d.^@`+B b ;@{@/@(@_@b v ]+:@!+:@<@~+J+X..@.@[@}@R  +&@B ( |@      ",
"1@- - - - - - ; Q.2@3@4@5@x < ; R.6@7@H+8@L 9@0@v a@K.T+b@c@d@e@f@`+B E.B g@h@i@j@j .+k@l@m@n@o@p@/.W.q+q@r@s@t@n@u@v@c+w       ",
"/+- /+- - - - ; Q.w@v@x@y@x ; < ; a 7@z@( v A@B@E.0 =.p.4+C@t Y D@`+B v R+E@<+9@O.y F@G@l@H@V.V.<.-.}@I@J@K@o+R+,+L@g - M@      ",
"- - /+- - - - ; Q.N@,@; O@Z+< ; [ a %+0 v [ v@P@!@Q@R@v+S@T@J b 2+`+B v b a@U@V@W@X@B+Y@Z@`@#@W. #.#w@+.+#8+z.X.@#&@g = j       ",
"- - - - - - - ; Q.2@ +< R.;@[ _.##y+%+$#b b v@P@!@a+T+%#0@=.&#b 2+`+B *#}.o.W+%+=#+.w.-#Z@;#X.W.>#,#'#)#!#~.w.A+~#&@g {#O ]#    ",
"- - - - - - - ; ^#I+J+< < v [ /#(#T %+T b b H+P@!@x+_#9@8@a b v 2+<.d@0 :#<#[#K.}#;+X.|#1#;#W.W. #2#3#4#5#6#w.7#8#&@9#0#a##     ",
"- - - - - - - - O+b#c#< v < X Y@g.a ;+a v b d#e#!@:@f#0 0 j+@+b g#B@n@h#i#j#z+d#>.k#k.l#m#n#7#w.B@,#)+o#p#q#w.z+n@r#s#t#u#v#    ",
"- - - - - < ^+:+d@d@w#x#y#z#W+k#A#5@B#C#a+K+D#E#K+F#G#H#I#s#T@J#K#L#M#N#N@O#P#f.Q#R#i+S#T#O.U#q@>+V#Q#W#B O.l N@l@X#Y#Z#`#v#    ",
"- - - - - [ = Y }.}. $ $}.}..$Q f+;.+$O _.@$k+;@#$M#$$f@C+%$n@&$U.U.h#}@0+b#n+*$=$-$;$U.>$;$,$o+'$>$n@o+0+k.6@)$5+b#O@!$~${$    ",
"- - - - - v b v b b b b b v @+]$g ^$u.T K+/$($_${@o#E.:$!+}@<$;#[$X.#@z+o+&$}$|#w.w.W.X.X.w.#@X.W.A+W.|$1$,@V.W.2$3$4$5$f@6$    ",
"- - - v v b b b b b b b b a+7$8$f.< b v v _.9@s#^@-+9$0$K#L.a$o+w.X.X.[$!+b$M#c$w.X.X.X.X.X.X.X.X.X.`.a {+W.X.%@d$e$f$g$h$i$    ",
"- v v b b b b b b b b v v L 7.k@; b b b b b M k@x b !@v f j$A+w.X.#@W.!++@X.7#W.#@X.X.X.X.X.X.X.X.w.N k$l$q+m$n$h$h$h$h$o$      ",
"b b b b b b b b b b b b W Q.p$q$v b b b b b E.p$O b b b r$X.X.X.X.A+A.q+X.X.X.q+A+X.X.X.X.X.X.X.X.w.s$t$u$v$w$h$h$h$h$x$y$      ",
"b b b b b b b b b b b d.5+z$A$[ b b b b b b b B$Z+b b .+w.7#w.7#w.w.{+#@#@[$w.V.w.A+#@C$w.z+w.w.z+0+D$h$h$h$h$h$h$h$E$F$G$      ",
"!@b b b b b b b b b b -+H$z$I$E.b b b b b b b E.E.b b x+|#J$K$L$N#w.{+M$P#N$o@Z#L O$q (.P$/.d+Q$q@R$w$h$h$h$h$h$S$F$F$F$T$      ",
"w b b b b b b b b b b ^@U$I@H+b b b b b b b b E.E.b V$W$L#X$#@'$Y$T+q+Z$Z#k@`$g A.'$g+W@ %.%+%@%R#M##%h$h$h$$%%%F$F$F$F$@       ",
"@ b b b b b b b b b b x U$H$j@b b b b b b b b b b 4+&%*%$$#@W.m.=%Q#-%[$#@;%>%|#!+m.,%l@'%)%!%~%{%]%^%/%(%F$F$F$F$F$_%:%        ",
"  !@b b b b b b b b b {@U$H$b#v b b b b b b b b b %@<%,%D #@X.C$Q.[%}%|%A.T@>%|#{+V.N+1%2%h$o$3%4%]%5%6%F$F$F$F$F$7%2 [         ",
"  ` b b b b b b b b b ]@H$8%6#!@b b b b b b b [ b 9%<%~.0@X.X.X.0%T@a%|#b%T@>%[.q+W.c%d%e%h$h$x$f%g%h%F$F$F$F$i%j%2 F#c         ",
"  . E.b b b b b b b b E.&#k%n@a+E.b b b b b b :%J#c$<%*@l%X.X.A+m%T@n%P#Z$T@`$o%0+A.N+d%p%h$$%q%r%g%s%F$F$t%j%2 2 2 X           ",
"    ` b b b b b b b b b u%I@K$7$b b b b b b [ C F#u f.v%w%X.X.X.7.x%y%|%A.z%>%P#A+=@A$d%A%E$F$F$ %g%B%C%j%2 2 2 2 F#@           ",
"      !@b b b b b b b b E.8 H+D%y+b b v [ G+U /.G+F@P#E%F%G%[$V.H%I%T+#@[$C@H@O$w.J%a$r@K%6%L%M%N%O%P%j%2 2 2 2 j+X             ",
"      # b b b b b b b b b b x K.Q%R%N.-+S%C+d@P+T%j U%V%W%'$w.X%Y%Z%m.z+`%[+ &.&e++&Y%@&#&$&%&&&=.*&=&j+O 2 N $#-&.             ",
"        w b b E.E.!@E.b b b v [ x ;&|%U.>&,&T%- - - j '&0 V@O$I+L {+$+j.B )&!&~&K$O+{&{&]&0$B$9+^&^&/&b@8 a J+,@w               ",
"                                                                                                                                ",
"                                                                                                                                ",
"                                                                                                                                ",
"                                                                                                                                ",
"                                                                                                                                ",
"                                                                                                                                ",
"                                                                                                                                ",
"                                                                                                                                ",
"                                                                                                                                ",
"                                                                                                                                ",
"                                                                                                                                "};
