/* XPM */
static char * C:\Users\Lu\Desktop\Shoreline\bitcoin16_xpm[] = {
"16 16 120 2",
"  	c #FFFFFF",
". 	c #FBFBFA",
"+ 	c #F8F7F5",
"@ 	c #F7F7F5",
"# 	c #F5F5F5",
"$ 	c #F9F9F9",
"% 	c #FDFCFC",
"& 	c #F4F3F1",
"* 	c #DFDEDD",
"= 	c #E0E0DF",
"- 	c #DADADA",
"; 	c #EBEBEA",
"> 	c #ECECEC",
", 	c #EFEFEF",
"' 	c #FBFBFB",
") 	c #FCFBFB",
"! 	c #F1F1EE",
"~ 	c #EFEEED",
"{ 	c #DEDEDE",
"] 	c #C1C1C2",
"^ 	c #D3D3D3",
"/ 	c #D4D4D4",
"( 	c #CECECE",
"_ 	c #C9CAC9",
": 	c #D8D8D8",
"< 	c #EDEDED",
"[ 	c #F7F7F7",
"} 	c #FEFEFD",
"| 	c #F1F0F0",
"1 	c #EDECEC",
"2 	c #DCDCDC",
"3 	c #E9E9E9",
"4 	c #B5B5B5",
"5 	c #BEBEBE",
"6 	c #DDDDDD",
"7 	c #C0C0C0",
"8 	c #B1B1B1",
"9 	c #BCBDBD",
"0 	c #C6C7C8",
"a 	c #D1D0D1",
"b 	c #FCFCFC",
"c 	c #EBEBEB",
"d 	c #E3E3E3",
"e 	c #EAEAEA",
"f 	c #EDEDEC",
"g 	c #C1C1C1",
"h 	c #BEBFC0",
"i 	c #C3C3C4",
"j 	c #CACBCB",
"k 	c #D5D5D5",
"l 	c #EEEEEE",
"m 	c #BDBDBE",
"n 	c #D7D7D7",
"o 	c #D9D9D9",
"p 	c #DFDEDF",
"q 	c #C4C4C5",
"r 	c #D4D4D3",
"s 	c #A7A7A9",
"t 	c #B2B2B3",
"u 	c #AFAFAF",
"v 	c #B2B2B2",
"w 	c #FEFEFE",
"x 	c #C2C2C3",
"y 	c #E4E4E4",
"z 	c #C8C8C8",
"A 	c #CCCCCC",
"B 	c #D2D3D3",
"C 	c #BBBBBB",
"D 	c #B0B0B0",
"E 	c #9C9C9D",
"F 	c #A0A1A2",
"G 	c #7B7C7C",
"H 	c #9FA0A0",
"I 	c #A3A2A2",
"J 	c #F8F8F8",
"K 	c #C5C5C6",
"L 	c #CAC9C9",
"M 	c #C6C6C5",
"N 	c #9C9D9D",
"O 	c #B1B2B3",
"P 	c #A1A1A2",
"Q 	c #ADAEAF",
"R 	c #B1B1B3",
"S 	c #AEAFB0",
"T 	c #B4B4B5",
"U 	c #BFBEBB",
"V 	c #F5F4F3",
"W 	c #F2F2F2",
"X 	c #F1F1F1",
"Y 	c #E6E6E6",
"Z 	c #B8B8BA",
"` 	c #BDBEBF",
" .	c #B7B8B9",
"..	c #B6B7B9",
"+.	c #B5B6B8",
"@.	c #D2D1CE",
"#.	c #E3E0D7",
"$.	c #E5E3DB",
"%.	c #FAFAF9",
"&.	c #C5C5C5",
"*.	c #BBBCBD",
"=.	c #9F9FA1",
"-.	c #98989A",
";.	c #9C9D9E",
">.	c #D3D1CA",
",.	c #AEADAA",
"'.	c #E0E1DC",
").	c #E0E1DF",
"!.	c #E7E7E7",
"~.	c #C1C2C1",
"{.	c #BBBBBC",
"].	c #969797",
"^.	c #A0A1A1",
"/.	c #D2D2CE",
"(.	c #A3A3A2",
"_.	c #F6F6F6",
":.	c #FBFAFA",
"<.	c #F0F0EF",
"[.	c #F0F1F0",
"}.	c #F3F3F4",
"                                ",
"                                ",
"        . + @ # # # $           ",
"    % & * = - ; > > > , '       ",
"  ) ! ~ { ] ^ - / ( _ : < [     ",
"} | 1 > 2 3 4 5 6 7 8 9 0 a b   ",
"# c / 2 d e e f g 1 e h i j k   ",
"l < m { n o p k q _ r s t u v w ",
"> < x y g z A B C D E F G H I J ",
"> c 6 ^ K L M N O P Q R S T U V ",
"W W X 9 W Y > Z `  ...+.@.#.$.%.",
"# W l g W W &.*.=.-.;.>.,.'.).  ",
"' W W z !.{ ~.{.;.].^./.(.n l   ",
"  b b b W _.:.l X l <.W [.}.    ",
"                                ",
"                                "};
